<?xml version="1.0" encoding="utf-8"?><svg xmlns="http://www.w3.org/2000/svg" xmlns:xlink="http://www.w3.org/1999/xlink"><symbol fill="none" viewBox="0 0 873 1000" id="background_symbol" xmlns="http://www.w3.org/2000/svg"><g clip-path="url(#aa)" fill-rule="evenodd" clip-rule="evenodd"><path d="M306.774 425.531h234.005c67.222 0 123.324 28.677 158.207 77.134 34.857 48.461 35.932 129.319 15.605 192.576l-25.988 80.758c-10.853 33.72-61.671 193.191-71.582 224h-127.66s1.952 1.711 108.595-329.787c9.416-29.254 14.792-76.739 0-97.276-14.767-20.533-39.683-32.686-72.652-32.686h-191.28c-37.558 0-70.842 24.427-82.461 60.507l55.211-175.226Z" fill="url(#ab)"/><path d="M124.336 1000H-.462C105.755 666.469 213.178 333.33 320.023 0H444.65a793.255 793.255 0 0 1-1.597 5.014C270.17 536.96 329.143 357.318 124.336 1000Z" fill="#F0145A"/></g><defs><linearGradient id="ab" x1="653.095" y1="999.998" x2="336.049" y2="646.678" gradientUnits="userSpaceOnUse"><stop stop-color="#F0145A"/><stop offset="1" stop-color="#693264"/></linearGradient><clipPath id="aa"><path fill="#fff" d="M0 0h872.34v1000H0z"/></clipPath></defs></symbol><symbol fill="none" viewBox="0 0 6 7" id="dot_img" xmlns="http://www.w3.org/2000/svg"><circle cx="3" cy="3.5" r="3" fill="#E6E6F0"/></symbol><symbol fill="none" viewBox="0 0 24 25" id="facebook_white" xmlns="http://www.w3.org/2000/svg"><path d="M24 12.573C24 5.905 18.627.5 12 .5S0 5.905 0 12.573C0 18.6 4.388 23.594 10.125 24.5v-8.437H7.078v-3.49h3.047v-2.66c0-3.025 1.791-4.697 4.533-4.697 1.313 0 2.686.236 2.686.236v2.971H15.83c-1.491 0-1.956.93-1.956 1.886v2.264h3.328l-.532 3.49h-2.796V24.5C19.612 23.594 24 18.6 24 12.573Z" fill="#fff"/></symbol><symbol fill="none" viewBox="0 0 130 60" id="logo" xmlns="http://www.w3.org/2000/svg"><path d="M4.957 0H0v35.799h4.957V22.518c0-2.247.559-4.02 1.676-5.268 1.118-1.248 2.649-1.897 4.544-1.897 1.628 0 2.989.6 4.082 1.747 1.093 1.174 1.652 2.647 1.652 4.42v14.304h4.981V21.519c0-3.295-.899-5.891-2.697-7.839-1.798-1.947-4.155-2.92-7.022-2.92-.826 0-1.652.1-2.454.324-.826.225-1.482.474-2.017.749-.534.275-1.044.574-1.506.924-.462.35-.778.599-.923.749-.146.15-.268.25-.316.324V0Z" fill="#F0145A"/><path d="M32.973 0h-5.11v35.769h5.11V0ZM63.111 25.294l.256-2.555c0-3.424-1.124-6.286-3.424-8.585-2.3-2.3-5.16-3.424-8.584-3.424-3.424 0-6.388 1.227-8.84 3.68-2.453 2.452-3.68 5.365-3.68 8.84 0 3.576 1.278 6.642 3.782 9.197 2.504 2.555 5.519 3.833 8.993 3.833 1.329 0 2.555-.205 3.782-.562 1.226-.41 2.248-.818 2.963-1.227.767-.46 1.533-.97 2.197-1.533.665-.562 1.125-.97 1.33-1.226.203-.256.357-.409.459-.562l-3.321-3.322-.767.971c-.51.614-1.38 1.227-2.606 1.89-1.277.665-2.606.972-4.037.972-1.992 0-3.679-.613-5.11-1.89-1.43-1.278-2.299-2.76-2.554-4.497H63.11ZM51.36 15.074c1.89 0 3.423.562 4.7 1.635 1.227 1.124 1.994 2.504 2.3 4.241H44.154c.46-1.737 1.277-3.117 2.555-4.241 1.226-1.073 2.81-1.635 4.65-1.635ZM86.943 34.287c0 2.248-.664 4.088-2.044 5.518-1.329 1.38-3.015 2.096-5.11 2.096-.92 0-1.84-.154-2.708-.41-.869-.255-1.533-.561-2.095-.92a11.553 11.553 0 0 1-1.584-1.174l-.92-.92c-.153-.153-.255-.307-.358-.409l-3.321 3.322.409.51c.255.358.715.818 1.328 1.329.613.46 1.329.97 2.146 1.482.818.46 1.84.869 3.117 1.226 1.278.358 2.606.562 3.986.562 3.475 0 6.336-1.175 8.738-3.526 2.35-2.401 3.526-5.263 3.526-8.737V11.242h-5.11v2.554l-.869-.766c-.562-.511-1.43-1.022-2.657-1.533a10.122 10.122 0 0 0-3.883-.767c-3.117 0-5.775 1.176-8.074 3.577-2.3 2.402-3.423 5.263-3.423 8.687 0 3.424 1.124 6.285 3.423 8.687 2.3 2.401 4.957 3.577 8.074 3.577.868 0 1.686-.102 2.554-.307a17.604 17.604 0 0 0 2.044-.766 7.622 7.622 0 0 0 1.533-.92c.46-.358.818-.613.92-.715l.358-.358v2.095ZM73.146 22.994c0-2.146.665-3.934 2.044-5.416 1.38-1.482 3.015-2.249 4.855-2.249 1.84 0 3.474.767 4.854 2.249 1.329 1.482 2.044 3.27 2.044 5.416 0 2.146-.715 3.935-2.044 5.416-1.38 1.482-3.015 2.249-4.854 2.249-1.84 0-3.475-.767-4.855-2.248-1.38-1.482-2.044-3.27-2.044-5.417ZM118.724 35.769v-15.84c0-2.607-.971-4.804-2.861-6.541-1.891-1.789-4.344-2.658-7.359-2.658-1.175 0-2.35.154-3.474.46-1.124.358-2.044.716-2.708 1.125-.665.408-1.329.868-1.942 1.43-.613.511-.971.869-1.175 1.073-.154.205-.307.358-.41.511l3.322 3.322.664-.869c.409-.562 1.125-1.073 2.198-1.635s2.248-.818 3.525-.818c1.482 0 2.709.46 3.68 1.329.97.869 1.43 1.993 1.43 3.27l-8.942 1.533c-2.197.358-3.986 1.227-5.212 2.606-1.277 1.38-1.942 3.066-1.942 5.059 0 1.89.818 3.526 2.453 4.956 1.686 1.482 3.73 2.198 6.234 2.198.869 0 1.686-.102 2.504-.358.869-.204 1.533-.46 2.095-.715a7.628 7.628 0 0 0 1.533-.92c.46-.358.766-.613.971-.715.153-.154.255-.307.306-.358v2.555h5.11Zm-11.752-4.088c-1.329 0-2.402-.307-3.169-.92-.817-.613-1.175-1.328-1.175-2.146 0-.869.256-1.635.818-2.197.562-.562 1.328-.971 2.248-1.124l7.92-1.278v.511c0 2.3-.562 4.037-1.737 5.314-1.175 1.227-2.81 1.84-4.905 1.84ZM130 0h-5.11v35.769H130V0ZM0 53.118h1.6v5.607h3.464v1.303H0v-6.91ZM15.502 58.548h-3.209l-.612 1.48h-1.638l3.08-6.91h1.579l3.09 6.91h-1.678l-.612-1.48Zm-.504-1.215-1.095-2.645-1.096 2.645h2.191ZM33.512 53.118l-2.26 6.91h-1.718l-1.52-4.679-1.57 4.68h-1.707l-2.27-6.91h1.658l1.56 4.856 1.628-4.857h1.48l1.58 4.897 1.61-4.897h1.53ZM50.523 60.147a4.033 4.033 0 0 1-1.915-.454 3.518 3.518 0 0 1-1.342-1.274 3.562 3.562 0 0 1-.484-1.846c0-.684.161-1.296.484-1.836.329-.546.776-.97 1.342-1.273.573-.31 1.214-.464 1.925-.464.599 0 1.139.105 1.619.316.487.21.895.513 1.224.908l-1.027.948c-.467-.54-1.046-.81-1.737-.81-.428 0-.81.096-1.145.286a2 2 0 0 0-.79.78 2.34 2.34 0 0 0-.276 1.145c0 .428.092.81.276 1.145.191.336.454.6.79.79a2.34 2.34 0 0 0 1.145.277c.691 0 1.27-.273 1.737-.82l1.027.948a3.2 3.2 0 0 1-1.224.918c-.487.21-1.03.316-1.629.316ZM62.593 60.147c-.717 0-1.365-.155-1.944-.464a3.5 3.5 0 0 1-1.353-1.273 3.543 3.543 0 0 1-.483-1.837c0-.677.16-1.286.483-1.826.33-.546.78-.974 1.353-1.283.579-.31 1.227-.464 1.944-.464.718 0 1.362.155 1.935.464a3.476 3.476 0 0 1 1.846 3.11c0 .677-.164 1.29-.494 1.836a3.5 3.5 0 0 1-1.352 1.273c-.573.31-1.217.464-1.935.464Zm0-1.362c.408 0 .777-.093 1.106-.277a2.02 2.02 0 0 0 .77-.79c.19-.335.286-.717.286-1.145 0-.427-.095-.809-.286-1.145a1.951 1.951 0 0 0-.77-.78 2.164 2.164 0 0 0-1.106-.286c-.408 0-.776.096-1.105.286a2.019 2.019 0 0 0-.78.78 2.34 2.34 0 0 0-.276 1.145c0 .428.092.81.276 1.145.19.336.45.6.78.79.329.184.697.277 1.105.277ZM78.8 60.028l-.01-4.146-2.034 3.416h-.72l-2.024-3.327v4.057h-1.5v-6.91h1.322l2.587 4.294 2.546-4.294h1.313l.02 6.91h-1.5ZM89.866 53.118c.612 0 1.142.102 1.59.306.453.205.802.494 1.046.87.243.374.365.819.365 1.332 0 .507-.122.95-.365 1.332-.244.376-.593.665-1.047.87-.447.197-.977.295-1.59.295h-1.39v1.905h-1.6v-6.91h2.99Zm-.089 3.702c.48 0 .846-.102 1.096-.306.25-.21.375-.507.375-.888 0-.389-.125-.685-.375-.889-.25-.21-.616-.316-1.096-.316h-1.303v2.4h1.303ZM103.148 58.548H99.94l-.612 1.48h-1.64l3.081-6.91h1.579l3.09 6.91h-1.678l-.612-1.48Zm-.504-1.215-1.095-2.645-1.096 2.645h2.191ZM117.428 53.118v6.91h-1.313l-3.445-4.195v4.195h-1.58v-6.91h1.323l3.435 4.196v-4.196h1.58ZM127.315 57.58v2.448h-1.599V57.56l-2.675-4.442h1.698l1.846 3.07 1.845-3.07H130l-2.685 4.462Z" fill="#fff"/></symbol><symbol fill="none" viewBox="0 0 297 60" id="logo_contact" xmlns="http://www.w3.org/2000/svg"><g clip-path="url(#ea)"><path d="M4.957 0H0v35.799h4.957V22.518c0-2.247.559-4.02 1.676-5.268 1.118-1.248 2.649-1.897 4.544-1.897 1.628 0 2.989.6 4.082 1.747 1.093 1.174 1.652 2.647 1.652 4.42v14.304h4.981V21.519c0-3.295-.899-5.891-2.697-7.839-1.798-1.947-4.155-2.92-7.022-2.92-.826 0-1.652.1-2.454.324-.826.225-1.482.474-2.017.749-.534.275-1.044.574-1.506.924-.462.35-.778.599-.923.749-.146.15-.268.25-.316.324V0Z" fill="#F0145A"/><path d="M32.973 0h-5.11v35.769h5.11V0ZM63.111 25.293l.256-2.555c0-3.424-1.124-6.285-3.424-8.584-2.3-2.3-5.16-3.424-8.584-3.424-3.424 0-6.388 1.226-8.84 3.68-2.453 2.452-3.68 5.364-3.68 8.84 0 3.576 1.278 6.642 3.782 9.197 2.504 2.555 5.519 3.832 8.993 3.832 1.329 0 2.555-.204 3.782-.562 1.226-.409 2.248-.817 2.963-1.226.767-.46 1.533-.971 2.197-1.533.665-.562 1.125-.971 1.33-1.227.203-.255.357-.408.459-.562l-3.321-3.321-.767.97c-.51.614-1.38 1.227-2.606 1.891-1.277.665-2.606.971-4.037.971-1.992 0-3.679-.613-5.11-1.89-1.43-1.278-2.299-2.76-2.554-4.497H63.11ZM51.36 15.073c1.89 0 3.423.562 4.7 1.636 1.227 1.124 1.994 2.503 2.3 4.24H44.154c.46-1.737 1.277-3.116 2.555-4.24 1.226-1.074 2.81-1.636 4.65-1.636ZM86.943 34.286c0 2.249-.664 4.088-2.044 5.519-1.329 1.38-3.015 2.095-5.11 2.095-.92 0-1.84-.153-2.708-.409-.869-.255-1.533-.562-2.095-.92a11.553 11.553 0 0 1-1.584-1.175l-.92-.92c-.153-.153-.255-.306-.358-.408l-3.321 3.321.409.511c.255.358.715.818 1.328 1.328.613.46 1.329.971 2.146 1.482.818.46 1.84.87 3.117 1.227 1.278.357 2.606.562 3.986.562 3.475 0 6.336-1.175 8.738-3.526 2.35-2.402 3.526-5.263 3.526-8.738V11.241h-5.11v2.555l-.869-.767c-.562-.51-1.43-1.022-2.657-1.533a10.12 10.12 0 0 0-3.883-.766c-3.117 0-5.775 1.175-8.074 3.577-2.3 2.402-3.423 5.263-3.423 8.687 0 3.423 1.124 6.285 3.423 8.686 2.3 2.402 4.957 3.577 8.074 3.577.868 0 1.686-.102 2.554-.306a17.604 17.604 0 0 0 2.044-.767 7.626 7.626 0 0 0 1.533-.92c.46-.357.818-.613.92-.715l.358-.358v2.095ZM73.146 22.994c0-2.146.665-3.935 2.044-5.417 1.38-1.482 3.015-2.248 4.855-2.248 1.84 0 3.474.766 4.854 2.248 1.329 1.482 2.044 3.27 2.044 5.417 0 2.146-.715 3.934-2.044 5.416-1.38 1.482-3.015 2.248-4.854 2.248-1.84 0-3.475-.766-4.855-2.248-1.38-1.482-2.044-3.27-2.044-5.416ZM118.724 35.768v-15.84c0-2.606-.971-4.804-2.861-6.54-1.891-1.79-4.344-2.658-7.359-2.658-1.175 0-2.35.153-3.474.46-1.124.358-2.044.715-2.708 1.124-.665.409-1.329.869-1.942 1.43-.613.512-.971.87-1.175 1.074-.154.204-.307.357-.41.51l3.322 3.322.664-.868c.409-.563 1.125-1.073 2.198-1.636 1.073-.562 2.248-.817 3.525-.817 1.482 0 2.709.46 3.68 1.328.97.87 1.43 1.993 1.43 3.27l-8.942 1.534c-2.197.357-3.986 1.226-5.212 2.606-1.277 1.38-1.942 3.066-1.942 5.058 0 1.891.818 3.526 2.453 4.957 1.686 1.482 3.73 2.197 6.234 2.197.869 0 1.686-.102 2.504-.358.869-.204 1.533-.46 2.095-.715a7.628 7.628 0 0 0 1.533-.92c.46-.357.766-.613.971-.715.153-.153.255-.307.306-.358v2.555h5.11Zm-11.752-4.088c-1.329 0-2.402-.306-3.169-.92-.817-.613-1.175-1.328-1.175-2.146 0-.868.256-1.635.818-2.197.562-.562 1.328-.97 2.248-1.124l7.92-1.277v.51c0 2.3-.562 4.037-1.737 5.315-1.175 1.226-2.81 1.84-4.905 1.84ZM130 0h-5.11v35.769H130V0ZM0 53.118h1.6v5.607h3.464v1.303H0v-6.91ZM15.502 58.548h-3.209l-.612 1.48h-1.638l3.08-6.91h1.579l3.09 6.91h-1.678l-.612-1.48Zm-.504-1.215-1.095-2.645-1.096 2.645h2.191ZM33.512 53.118l-2.26 6.91h-1.718l-1.52-4.679-1.57 4.68h-1.707l-2.27-6.91h1.658l1.56 4.856 1.628-4.857h1.48l1.58 4.897 1.61-4.897h1.53ZM50.523 60.147a4.033 4.033 0 0 1-1.915-.454 3.518 3.518 0 0 1-1.342-1.274 3.562 3.562 0 0 1-.484-1.846c0-.684.161-1.296.484-1.836.329-.546.776-.97 1.342-1.273.573-.31 1.214-.464 1.925-.464.599 0 1.139.105 1.619.316.487.21.895.513 1.224.908l-1.027.948c-.467-.54-1.046-.81-1.737-.81-.428 0-.81.096-1.145.286a2 2 0 0 0-.79.78 2.34 2.34 0 0 0-.276 1.145c0 .428.092.81.276 1.145.191.336.454.6.79.79a2.34 2.34 0 0 0 1.145.277c.691 0 1.27-.273 1.737-.82l1.027.948a3.2 3.2 0 0 1-1.224.918c-.487.21-1.03.316-1.629.316ZM62.593 60.147c-.717 0-1.365-.155-1.944-.464a3.5 3.5 0 0 1-1.353-1.273 3.543 3.543 0 0 1-.483-1.837c0-.677.16-1.286.483-1.826.33-.546.78-.974 1.353-1.283.579-.31 1.227-.464 1.944-.464.718 0 1.362.155 1.935.464a3.476 3.476 0 0 1 1.846 3.11c0 .677-.164 1.29-.494 1.836a3.5 3.5 0 0 1-1.352 1.273c-.573.31-1.217.464-1.935.464Zm0-1.362c.408 0 .777-.093 1.106-.277a2.02 2.02 0 0 0 .77-.79c.19-.335.286-.717.286-1.145 0-.427-.095-.809-.286-1.145a1.951 1.951 0 0 0-.77-.78 2.164 2.164 0 0 0-1.106-.286c-.408 0-.776.096-1.105.286a2.019 2.019 0 0 0-.78.78 2.34 2.34 0 0 0-.276 1.145c0 .428.092.81.276 1.145.19.336.45.6.78.79.329.184.697.277 1.105.277ZM78.8 60.028l-.01-4.146-2.034 3.416h-.72l-2.024-3.327v4.057h-1.5v-6.91h1.322l2.587 4.294 2.546-4.294h1.313l.02 6.91h-1.5ZM89.866 53.118c.612 0 1.142.102 1.59.306.453.205.802.494 1.046.87.243.374.365.819.365 1.332 0 .507-.122.95-.365 1.332-.244.376-.593.665-1.047.87-.447.197-.977.295-1.59.295h-1.39v1.905h-1.6v-6.91h2.99Zm-.089 3.702c.48 0 .846-.102 1.096-.306.25-.21.375-.507.375-.888 0-.389-.125-.685-.375-.889-.25-.21-.616-.316-1.096-.316h-1.303v2.4h1.303ZM103.148 58.548H99.94l-.612 1.48h-1.64l3.081-6.91h1.579l3.09 6.91h-1.678l-.612-1.48Zm-.504-1.215-1.095-2.645-1.096 2.645h2.191ZM117.428 53.118v6.91h-1.313l-3.445-4.195v4.195h-1.58v-6.91h1.323l3.435 4.196v-4.196h1.58ZM127.315 57.58v2.448h-1.599V57.56l-2.675-4.442h1.698l1.846 3.07 1.845-3.07H130l-2.685 4.462Z" fill="#323264"/><path fill-rule="evenodd" clip-rule="evenodd" d="M149.175 0H155l-15.175 47H134l15.175-47Z" fill="#F0145A"/><path d="M170.412 35.18c-1.872 0-3.552-.408-5.04-1.224a9.268 9.268 0 0 1-3.456-3.42c-.84-1.464-1.26-3.132-1.26-5.004 0-1.896.42-3.564 1.26-5.004a9.003 9.003 0 0 1 3.456-3.384c1.488-.816 3.168-1.224 5.04-1.224 1.608 0 3.06.312 4.356.936a7.058 7.058 0 0 1 3.06 2.808l-1.908 1.296c-.648-.96-1.452-1.668-2.412-2.124-.96-.456-2.004-.684-3.132-.684-1.344 0-2.556.312-3.636.936a6.543 6.543 0 0 0-2.556 2.556c-.624 1.104-.936 2.4-.936 3.888s.312 2.784.936 3.888a6.8 6.8 0 0 0 2.556 2.592c1.08.6 2.292.9 3.636.9 1.128 0 2.172-.228 3.132-.684.96-.456 1.764-1.152 2.412-2.088l1.908 1.296a7.358 7.358 0 0 1-3.06 2.808c-1.296.624-2.748.936-4.356.936Zm19.825 0c-1.824 0-3.468-.408-4.932-1.224a9.349 9.349 0 0 1-3.42-3.42c-.84-1.464-1.26-3.132-1.26-5.004 0-1.896.42-3.564 1.26-5.004a9.076 9.076 0 0 1 3.42-3.384c1.44-.816 3.084-1.224 4.932-1.224 1.872 0 3.528.408 4.968 1.224a8.748 8.748 0 0 1 3.42 3.384c.84 1.44 1.26 3.108 1.26 5.004 0 1.872-.42 3.54-1.26 5.004a9.001 9.001 0 0 1-3.42 3.42c-1.464.816-3.12 1.224-4.968 1.224Zm0-2.268c1.368 0 2.58-.3 3.636-.9a6.62 6.62 0 0 0 2.484-2.592c.624-1.128.936-2.424.936-3.888 0-1.488-.312-2.784-.936-3.888-.6-1.104-1.428-1.956-2.484-2.556-1.056-.624-2.256-.936-3.6-.936-1.344 0-2.544.312-3.6.936-1.056.6-1.896 1.452-2.52 2.556-.624 1.104-.936 2.4-.936 3.888 0 1.464.312 2.76.936 3.888a6.881 6.881 0 0 0 2.52 2.592c1.056.6 2.244.9 3.564.9Zm24.514-16.992c1.536 0 2.88.3 4.032.9 1.176.576 2.088 1.464 2.736 2.664.672 1.2 1.008 2.712 1.008 4.536V35h-2.556V24.272c0-1.992-.504-3.492-1.512-4.5-.984-1.032-2.376-1.548-4.176-1.548-1.344 0-2.52.276-3.528.828-.984.528-1.752 1.308-2.304 2.34-.528 1.008-.792 2.232-.792 3.672V35h-2.556V16.1h2.448v5.184l-.396-.972c.6-1.368 1.56-2.436 2.88-3.204 1.32-.792 2.892-1.188 4.716-1.188Zm20.656 19.26c-1.776 0-3.144-.48-4.104-1.44s-1.44-2.316-1.44-4.068V11.924h2.556v17.604c0 1.104.276 1.956.828 2.556.576.6 1.392.9 2.448.9 1.128 0 2.064-.324 2.808-.972l.9 1.836c-.504.456-1.116.792-1.836 1.008a7.245 7.245 0 0 1-2.16.324Zm-8.928-16.956V16.1h11.7v2.124h-11.7ZM255.9 35v-4.176l-.108-.684v-6.984c0-1.608-.456-2.844-1.368-3.708-.888-.864-2.22-1.296-3.996-1.296a9.992 9.992 0 0 0-3.492.612c-1.104.408-2.04.948-2.808 1.62l-1.152-1.908c.96-.816 2.112-1.44 3.456-1.872a13.131 13.131 0 0 1 4.248-.684c2.448 0 4.332.612 5.652 1.836 1.344 1.2 2.016 3.036 2.016 5.508V35H255.9Zm-6.516.18c-1.416 0-2.652-.228-3.708-.684-1.032-.48-1.824-1.128-2.376-1.944-.552-.84-.828-1.8-.828-2.88 0-.984.228-1.872.684-2.664.48-.816 1.248-1.464 2.304-1.944 1.08-.504 2.52-.756 4.32-.756h6.516v1.908h-6.444c-1.824 0-3.096.324-3.816.972-.696.648-1.044 1.452-1.044 2.412 0 1.08.42 1.944 1.26 2.592.84.648 2.016.972 3.528.972 1.44 0 2.676-.324 3.708-.972 1.056-.672 1.824-1.632 2.304-2.88l.576 1.764c-.48 1.248-1.32 2.244-2.52 2.988-1.176.744-2.664 1.116-4.464 1.116Zm23.755 0c-1.872 0-3.552-.408-5.04-1.224a9.268 9.268 0 0 1-3.456-3.42c-.84-1.464-1.26-3.132-1.26-5.004 0-1.896.42-3.564 1.26-5.004a9.003 9.003 0 0 1 3.456-3.384c1.488-.816 3.168-1.224 5.04-1.224 1.608 0 3.06.312 4.356.936a7.058 7.058 0 0 1 3.06 2.808l-1.908 1.296c-.648-.96-1.452-1.668-2.412-2.124-.96-.456-2.004-.684-3.132-.684-1.344 0-2.556.312-3.636.936a6.543 6.543 0 0 0-2.556 2.556c-.624 1.104-.936 2.4-.936 3.888s.312 2.784.936 3.888a6.8 6.8 0 0 0 2.556 2.592c1.08.6 2.292.9 3.636.9 1.128 0 2.172-.228 3.132-.684.96-.456 1.764-1.152 2.412-2.088l1.908 1.296a7.358 7.358 0 0 1-3.06 2.808c-1.296.624-2.748.936-4.356.936Zm18.624 0c-1.776 0-3.144-.48-4.104-1.44s-1.44-2.316-1.44-4.068V11.924h2.556v17.604c0 1.104.276 1.956.828 2.556.576.6 1.392.9 2.448.9 1.128 0 2.064-.324 2.808-.972l.9 1.836c-.504.456-1.116.792-1.836 1.008a7.245 7.245 0 0 1-2.16.324Zm-8.928-16.956V16.1h11.7v2.124h-11.7Z" fill="#323264"/></g><defs><clipPath id="ea"><path fill="#fff" d="M0 0h297v60H0z"/></clipPath></defs></symbol><symbol fill="none" viewBox="0 0 254 60" id="logo_team" xmlns="http://www.w3.org/2000/svg"><g clip-path="url(#fa)"><path d="M4.957 0H0V35.8h4.957V22.518c0-2.247.559-4.02 1.676-5.268 1.118-1.248 2.649-1.897 4.544-1.897 1.628 0 2.989.6 4.082 1.748 1.093 1.173 1.652 2.646 1.652 4.418v14.305h4.981V21.519c0-3.295-.899-5.891-2.697-7.839-1.798-1.947-4.155-2.92-7.022-2.92-.826 0-1.652.1-2.454.324-.826.225-1.482.475-2.017.75-.534.274-1.044.573-1.506.923-.462.35-.778.599-.923.749-.146.15-.268.25-.316.324V0Z" fill="#F0145A"/><path d="M32.973 0h-5.11v35.769h5.11V0ZM63.111 25.293l.256-2.555c0-3.423-1.124-6.285-3.424-8.584-2.3-2.3-5.16-3.424-8.584-3.424-3.424 0-6.388 1.226-8.84 3.68-2.453 2.452-3.68 5.364-3.68 8.84 0 3.576 1.278 6.642 3.782 9.197 2.504 2.555 5.519 3.832 8.993 3.832 1.329 0 2.555-.204 3.782-.562 1.226-.409 2.248-.817 2.963-1.226.767-.46 1.533-.971 2.197-1.533.665-.562 1.125-.971 1.33-1.226.203-.256.357-.41.459-.563l-3.321-3.32-.767.97c-.51.613-1.38 1.226-2.606 1.89-1.277.665-2.606.971-4.037.971-1.992 0-3.679-.613-5.11-1.89-1.43-1.278-2.299-2.76-2.554-4.497H63.11ZM51.36 15.073c1.89 0 3.423.563 4.7 1.636 1.227 1.124 1.994 2.503 2.3 4.24H44.154c.46-1.737 1.277-3.116 2.555-4.24 1.226-1.073 2.81-1.636 4.65-1.636ZM86.943 34.286c0 2.249-.664 4.088-2.044 5.52-1.329 1.379-3.015 2.094-5.11 2.094-.92 0-1.84-.153-2.708-.409-.869-.255-1.533-.562-2.095-.92a11.537 11.537 0 0 1-1.584-1.175l-.92-.92c-.153-.153-.255-.306-.358-.408l-3.321 3.321.409.511c.255.358.715.818 1.328 1.329.613.46 1.329.97 2.146 1.482.818.46 1.84.868 3.117 1.226 1.278.358 2.606.562 3.986.562 3.475 0 6.336-1.175 8.738-3.526 2.35-2.401 3.526-5.263 3.526-8.738V11.241h-5.11v2.555l-.869-.766c-.562-.511-1.43-1.022-2.657-1.533a10.12 10.12 0 0 0-3.883-.767c-3.117 0-5.775 1.175-8.074 3.577-2.3 2.402-3.423 5.263-3.423 8.687 0 3.423 1.124 6.285 3.423 8.686 2.3 2.402 4.957 3.577 8.074 3.577.868 0 1.686-.102 2.554-.306a17.624 17.624 0 0 0 2.044-.767 7.622 7.622 0 0 0 1.533-.92c.46-.357.818-.613.92-.715l.358-.358v2.095ZM73.146 22.994c0-2.146.665-3.935 2.044-5.417 1.38-1.482 3.015-2.248 4.855-2.248 1.84 0 3.474.766 4.854 2.248 1.329 1.482 2.044 3.27 2.044 5.417 0 2.146-.715 3.934-2.044 5.416-1.38 1.482-3.015 2.248-4.854 2.248-1.84 0-3.475-.766-4.855-2.248-1.38-1.482-2.044-3.27-2.044-5.416ZM118.724 35.768v-15.84c0-2.606-.971-4.803-2.861-6.54-1.891-1.79-4.344-2.658-7.359-2.658-1.175 0-2.35.153-3.474.46-1.124.358-2.044.715-2.708 1.124-.665.409-1.329.869-1.942 1.43-.613.512-.971.87-1.175 1.074-.154.204-.307.358-.41.511l3.322 3.321.664-.868c.409-.562 1.125-1.073 2.198-1.636 1.073-.562 2.248-.817 3.525-.817 1.482 0 2.709.46 3.68 1.328.97.87 1.43 1.993 1.43 3.27l-8.942 1.534c-2.197.358-3.986 1.226-5.212 2.606-1.277 1.38-1.942 3.066-1.942 5.058 0 1.891.818 3.526 2.453 4.957 1.686 1.482 3.73 2.197 6.234 2.197.869 0 1.686-.102 2.504-.357.869-.205 1.533-.46 2.095-.716a7.628 7.628 0 0 0 1.533-.92c.46-.357.766-.613.971-.715.153-.153.255-.306.306-.358v2.555h5.11Zm-11.752-4.088c-1.329 0-2.402-.306-3.169-.92-.817-.613-1.175-1.328-1.175-2.146 0-.868.256-1.635.818-2.197.562-.562 1.328-.97 2.248-1.124l7.92-1.277v.51c0 2.3-.562 4.037-1.737 5.315-1.175 1.226-2.81 1.84-4.905 1.84ZM130 0h-5.11v35.769H130V0ZM0 53.118h1.6v5.607h3.464v1.303H0v-6.91ZM15.502 58.548h-3.209l-.612 1.48h-1.638l3.08-6.91h1.579l3.09 6.91h-1.678l-.612-1.48Zm-.504-1.215-1.095-2.645-1.096 2.645h2.191ZM33.512 53.118l-2.26 6.91h-1.718l-1.52-4.679-1.57 4.68h-1.707l-2.27-6.91h1.658l1.56 4.856 1.628-4.857h1.48l1.58 4.897 1.61-4.897h1.53ZM50.523 60.147a4.033 4.033 0 0 1-1.915-.454 3.518 3.518 0 0 1-1.342-1.274 3.562 3.562 0 0 1-.484-1.846c0-.684.161-1.296.484-1.836.329-.546.776-.97 1.342-1.273.573-.31 1.214-.464 1.925-.464.599 0 1.139.105 1.619.316.487.21.895.513 1.224.908l-1.027.948c-.467-.54-1.046-.81-1.737-.81-.428 0-.81.096-1.145.286a2 2 0 0 0-.79.78 2.34 2.34 0 0 0-.276 1.145c0 .428.092.81.276 1.145.191.336.454.6.79.79a2.34 2.34 0 0 0 1.145.277c.691 0 1.27-.273 1.737-.82l1.027.948a3.2 3.2 0 0 1-1.224.918c-.487.21-1.03.316-1.629.316ZM62.593 60.147c-.717 0-1.365-.155-1.944-.464a3.5 3.5 0 0 1-1.353-1.273 3.543 3.543 0 0 1-.483-1.837c0-.677.16-1.286.483-1.826.33-.546.78-.974 1.353-1.283.579-.31 1.227-.464 1.944-.464.718 0 1.362.155 1.935.464a3.476 3.476 0 0 1 1.846 3.11c0 .677-.164 1.29-.494 1.836a3.5 3.5 0 0 1-1.352 1.273c-.573.31-1.217.464-1.935.464Zm0-1.362c.408 0 .777-.093 1.106-.277a2.02 2.02 0 0 0 .77-.79c.19-.335.286-.717.286-1.145 0-.427-.095-.809-.286-1.145a1.951 1.951 0 0 0-.77-.78 2.164 2.164 0 0 0-1.106-.286c-.408 0-.776.096-1.105.286a2.019 2.019 0 0 0-.78.78 2.34 2.34 0 0 0-.276 1.145c0 .428.092.81.276 1.145.19.336.45.6.78.79.329.184.697.277 1.105.277ZM78.8 60.028l-.01-4.146-2.034 3.416h-.72l-2.024-3.327v4.057h-1.5v-6.91h1.322l2.587 4.294 2.546-4.294h1.313l.02 6.91h-1.5ZM89.866 53.118c.612 0 1.142.102 1.59.306.453.205.802.494 1.046.87.243.374.365.819.365 1.332 0 .507-.122.95-.365 1.332-.244.376-.593.665-1.047.87-.447.197-.977.295-1.59.295h-1.39v1.905h-1.6v-6.91h2.99Zm-.089 3.702c.48 0 .846-.102 1.096-.306.25-.21.375-.507.375-.888 0-.389-.125-.685-.375-.889-.25-.21-.616-.316-1.096-.316h-1.303v2.4h1.303ZM103.148 58.548H99.94l-.612 1.48h-1.64l3.081-6.91h1.579l3.09 6.91h-1.678l-.612-1.48Zm-.504-1.215-1.095-2.645-1.096 2.645h2.191ZM117.428 53.118v6.91h-1.313l-3.445-4.195v4.195h-1.58v-6.91h1.323l3.435 4.196v-4.196h1.58ZM127.315 57.58v2.448h-1.599V57.56l-2.675-4.442h1.698l1.846 3.07 1.845-3.07H130l-2.685 4.462Z" fill="#323264"/><path fill-rule="evenodd" clip-rule="evenodd" d="M149.175 0H155l-15.175 47H134l15.175-47Z" fill="#F0145A"/><path d="M168.54 35.18c-1.776 0-3.144-.48-4.104-1.44s-1.44-2.316-1.44-4.068V11.924h2.556v17.604c0 1.104.276 1.956.828 2.556.576.6 1.392.9 2.448.9 1.128 0 2.064-.324 2.808-.972l.9 1.836c-.504.456-1.116.792-1.836 1.008a7.245 7.245 0 0 1-2.16.324Zm-8.928-16.956V16.1h11.7v2.124h-11.7Zm24.937 16.956c-1.968 0-3.696-.408-5.184-1.224-1.488-.84-2.652-1.98-3.492-3.42-.84-1.464-1.26-3.132-1.26-5.004 0-1.872.396-3.528 1.188-4.968.816-1.44 1.92-2.568 3.312-3.384 1.416-.84 3-1.26 4.752-1.26 1.776 0 3.348.408 4.716 1.224 1.392.792 2.484 1.92 3.276 3.384.792 1.44 1.188 3.108 1.188 5.004 0 .12-.012.252-.036.396v.396h-16.452v-1.908h15.084l-1.008.756c0-1.368-.3-2.58-.9-3.636-.576-1.08-1.368-1.92-2.376-2.52-1.008-.6-2.172-.9-3.492-.9-1.296 0-2.46.3-3.492.9a6.257 6.257 0 0 0-2.412 2.52c-.576 1.08-.864 2.316-.864 3.708v.396c0 1.44.312 2.712.936 3.816a6.993 6.993 0 0 0 2.664 2.556c1.152.6 2.46.9 3.924.9 1.152 0 2.22-.204 3.204-.612a6.665 6.665 0 0 0 2.592-1.872l1.44 1.656c-.84 1.008-1.896 1.776-3.168 2.304-1.248.528-2.628.792-4.14.792Zm25.015-.18v-4.176l-.108-.684v-6.984c0-1.608-.456-2.844-1.368-3.708-.888-.864-2.22-1.296-3.996-1.296a9.992 9.992 0 0 0-3.492.612c-1.104.408-2.04.948-2.808 1.62l-1.152-1.908c.96-.816 2.112-1.44 3.456-1.872a13.131 13.131 0 0 1 4.248-.684c2.448 0 4.332.612 5.652 1.836 1.344 1.2 2.016 3.036 2.016 5.508V35h-2.448Zm-6.516.18c-1.416 0-2.652-.228-3.708-.684-1.032-.48-1.824-1.128-2.376-1.944-.552-.84-.828-1.8-.828-2.88 0-.984.228-1.872.684-2.664.48-.816 1.248-1.464 2.304-1.944 1.08-.504 2.52-.756 4.32-.756h6.516v1.908h-6.444c-1.824 0-3.096.324-3.816.972-.696.648-1.044 1.452-1.044 2.412 0 1.08.42 1.944 1.26 2.592.84.648 2.016.972 3.528.972 1.44 0 2.676-.324 3.708-.972 1.056-.672 1.824-1.632 2.304-2.88l.576 1.764c-.48 1.248-1.32 2.244-2.52 2.988-1.176.744-2.664 1.116-4.464 1.116Zm39.523-19.26c1.536 0 2.868.3 3.996.9 1.152.576 2.04 1.464 2.664 2.664.648 1.2.972 2.712.972 4.536V35h-2.556V24.272c0-1.992-.48-3.492-1.44-4.5-.936-1.032-2.268-1.548-3.996-1.548-1.296 0-2.424.276-3.384.828-.936.528-1.668 1.308-2.196 2.34-.504 1.008-.756 2.232-.756 3.672V35h-2.556V24.272c0-1.992-.48-3.492-1.44-4.5-.96-1.032-2.304-1.548-4.032-1.548-1.272 0-2.388.276-3.348.828-.96.528-1.704 1.308-2.232 2.34-.504 1.008-.756 2.232-.756 3.672V35h-2.556V16.1h2.448v5.112l-.396-.9a6.683 6.683 0 0 1 2.772-3.204c1.296-.792 2.82-1.188 4.572-1.188 1.848 0 3.42.468 4.716 1.404 1.296.912 2.136 2.292 2.52 4.14l-1.008-.396c.552-1.536 1.524-2.772 2.916-3.708 1.416-.96 3.108-1.44 5.076-1.44Z" fill="#323264"/></g><defs><clipPath id="fa"><path fill="#fff" d="M0 0h254v60H0z"/></clipPath></defs></symbol><symbol fill="none" viewBox="0 0 20 12" id="main_btn_scroll" xmlns="http://www.w3.org/2000/svg"><path d="m1 1 9 9 9-9" stroke="#fff" stroke-width="2"/></symbol><symbol fill="none" viewBox="0 0 92 92" id="main_services_icon_1" xmlns="http://www.w3.org/2000/svg"><rect width="92" height="92" rx="24" fill="#fff"/><path d="M37.734 42.125a2 2 0 0 0 2-2v-7.8A6.332 6.332 0 0 1 46.058 26a6.333 6.333 0 0 1 6.325 6.325v7.8a2 2 0 0 0 4 0v-7.8C56.383 26.632 51.752 22 46.058 22c-5.692 0-10.324 4.632-10.324 10.325v7.8a2 2 0 0 0 2 2Z" fill="url(#ha)"/><path d="M69 37.633H58.384v2.494c0 2.206-1.794 4-4 4s-4-1.794-4-4v-2.494h-8.649v2.494c0 2.206-1.794 4-4 4s-4-1.794-4-4v-2.494H23c-.552 0-.893.435-.762.97l6.998 28.498C29.658 68.703 31.344 70 33 70h26c1.658 0 3.342-1.298 3.766-2.9l6.996-28.497c.131-.537-.209-.971-.762-.971Z" fill="url(#hb)"/><path d="M42.6 48.4a1.4 1.4 0 1 1 2.8 0v6.95V54a1.4 1.4 0 1 1 2.8 0v1.676c.013-.762.635-2.376 1.4-2.376a1.4 1.4 0 0 1 1.4 1.4s.041 1.041.133 1.103C51.357 55.33 51.84 54 52.4 54a1.4 1.4 0 0 1 1.4 1.4v7a2.8 2.8 0 0 1-2.8 2.8h-4.68a5.6 5.6 0 0 1-3.96-1.64l-2.21-2.21L37 59.94c.005-1.337 1.053-1.74 2.1-1.74.902 0 1.714.14 3.5 1.05V48.4Z" fill="#fff"/><defs><linearGradient id="ha" x1="46.058" y1="22" x2="46.058" y2="42.125" gradientUnits="userSpaceOnUse"><stop stop-color="#EF8080"/><stop offset="1" stop-color="#F0145A"/></linearGradient><linearGradient id="hb" x1="46" y1="37.633" x2="46" y2="70.002" gradientUnits="userSpaceOnUse"><stop stop-color="#EF8080"/><stop offset="1" stop-color="#F0145A"/></linearGradient></defs></symbol><symbol fill="none" viewBox="0 0 93 92" id="main_services_icon_2" xmlns="http://www.w3.org/2000/svg"><rect x=".333" width="92" height="92" rx="24" fill="#fff"/><path fill-rule="evenodd" clip-rule="evenodd" d="M67.785 49.078v17.295c0 3.094-2.425 5.629-5.388 5.629H30.304c-2.964 0-5.388-2.535-5.388-5.629V49.078h16.666v7.51l4.768 3.134 4.769-3.133v-7.51h16.666Z" fill="url(#ia)"/><path fill-rule="evenodd" clip-rule="evenodd" d="M43.252 49.078v6.609l3.098 2.035 3.098-2.035v-6.609h-6.196Z" fill="url(#ib)"/><path fill-rule="evenodd" clip-rule="evenodd" d="M26.407 29.145h39.886c1.883 0 3.421 1.708 3.421 3.795v10.253c0 2.088-1.538 3.796-3.42 3.796H26.406c-1.883 0-3.42-1.708-3.42-3.796V32.94c0-2.087 1.538-3.795 3.42-3.795Z" fill="url(#ic)"/><path fill-rule="evenodd" clip-rule="evenodd" d="M38.045 19.953h16.61a2.814 2.814 0 0 1 2.806 2.806v4.378h-3.557V24.55c0-.698-.57-1.27-1.268-1.27H40.064c-.697 0-1.267.572-1.267 1.27v2.587H35.24v-4.378a2.814 2.814 0 0 1 2.805-2.806Z" fill="url(#id)"/><defs><linearGradient id="ia" x1="46.35" y1="49.078" x2="46.35" y2="72.002" gradientUnits="userSpaceOnUse"><stop stop-color="#EF8080"/><stop offset="1" stop-color="#F0145A"/></linearGradient><linearGradient id="ib" x1="46.35" y1="49.078" x2="46.35" y2="57.722" gradientUnits="userSpaceOnUse"><stop stop-color="#EF8080"/><stop offset="1" stop-color="#F0145A"/></linearGradient><linearGradient id="ic" x1="46.35" y1="29.145" x2="46.35" y2="46.989" gradientUnits="userSpaceOnUse"><stop stop-color="#EF8080"/><stop offset="1" stop-color="#F0145A"/></linearGradient><linearGradient id="id" x1="46.35" y1="19.953" x2="46.35" y2="27.137" gradientUnits="userSpaceOnUse"><stop stop-color="#EF8080"/><stop offset="1" stop-color="#F0145A"/></linearGradient></defs></symbol><symbol fill="none" viewBox="0 0 93 92" id="main_services_icon_3" xmlns="http://www.w3.org/2000/svg"><rect x=".667" width="92" height="92" rx="24" fill="#fff"/><g clip-path="url(#ja)"><path d="M75.193 51.727a5.595 5.595 0 0 0-2.15-.429 5.61 5.61 0 0 0-4.187 1.863l-1.22-.505-3.48-1.441c.494-1.653.76-3.404.76-5.215 0-1.812-.266-3.562-.76-5.215l3.48-1.441 1.22-.506a5.61 5.61 0 0 0 4.186 1.863 5.631 5.631 0 0 0 5.195-7.779 5.61 5.61 0 0 0-5.198-3.473 5.634 5.634 0 0 0-5.615 5.923l-1.227.508-3.479 1.441a18.381 18.381 0 0 0-7.373-7.373l1.441-3.479.508-1.225a5.61 5.61 0 0 0 5.494-3.465A5.632 5.632 0 0 0 57.593 14a5.61 5.61 0 0 0-5.199 3.473 5.634 5.634 0 0 0 1.436 6.334l-.507 1.223-1.441 3.48a18.197 18.197 0 0 0-5.215-.76c-1.812 0-3.562.267-5.215.76l-1.441-3.48-.507-1.223a5.634 5.634 0 0 0 1.435-6.334A5.61 5.61 0 0 0 35.741 14a5.631 5.631 0 0 0-5.195 7.779 5.61 5.61 0 0 0 5.494 3.465l.508 1.226 1.44 3.479a18.38 18.38 0 0 0-7.372 7.373l-3.48-1.441-1.227-.508a5.634 5.634 0 0 0-3.463-5.494 5.595 5.595 0 0 0-2.151-.43 5.61 5.61 0 0 0-5.199 3.474 5.632 5.632 0 0 0 5.196 7.779 5.61 5.61 0 0 0 4.185-1.864l1.22.506 3.48 1.441a18.19 18.19 0 0 0-.76 5.215c0 1.812.267 3.562.76 5.215l-3.48 1.441-1.22.505a5.61 5.61 0 0 0-4.186-1.863 5.632 5.632 0 0 0-5.195 7.779 5.61 5.61 0 0 0 5.199 3.473c.74 0 1.463-.144 2.15-.429a5.634 5.634 0 0 0 3.464-5.494l1.227-.508 3.48-1.44a18.382 18.382 0 0 0 7.373 7.372l-1.441 3.48-.508 1.225a5.61 5.61 0 0 0-5.494 3.465A5.632 5.632 0 0 0 35.74 78a5.61 5.61 0 0 0 5.198-3.474 5.634 5.634 0 0 0-1.435-6.333l.506-1.223 1.442-3.48c1.653.493 3.403.76 5.215.76 1.811 0 3.561-.267 5.215-.76l1.441 3.48.507 1.223a5.634 5.634 0 0 0-1.436 6.334A5.61 5.61 0 0 0 57.592 78a5.631 5.631 0 0 0 5.195-7.779 5.61 5.61 0 0 0-5.494-3.465l-.507-1.226-1.441-3.479a18.381 18.381 0 0 0 7.373-7.373l3.479 1.441 1.227.508a5.634 5.634 0 0 0 3.464 5.494c.687.285 1.41.43 2.15.43a5.61 5.61 0 0 0 5.2-3.474 5.631 5.631 0 0 0-3.045-7.35ZM46.667 60.5c-7.995 0-14.5-6.505-14.5-14.5s6.505-14.5 14.5-14.5 14.5 6.505 14.5 14.5-6.505 14.5-14.5 14.5Z" fill="#000"/><path d="M75.193 51.727a5.595 5.595 0 0 0-2.15-.429 5.61 5.61 0 0 0-4.187 1.863l-1.22-.505-3.48-1.441c.494-1.653.76-3.404.76-5.215 0-1.812-.266-3.562-.76-5.215l3.48-1.441 1.22-.506a5.61 5.61 0 0 0 4.186 1.863 5.631 5.631 0 0 0 5.195-7.779 5.61 5.61 0 0 0-5.198-3.473 5.634 5.634 0 0 0-5.615 5.923l-1.227.508-3.479 1.441a18.381 18.381 0 0 0-7.373-7.373l1.441-3.479.508-1.225a5.61 5.61 0 0 0 5.494-3.465A5.632 5.632 0 0 0 57.593 14a5.61 5.61 0 0 0-5.199 3.473 5.634 5.634 0 0 0 1.436 6.334l-.507 1.223-1.441 3.48a18.197 18.197 0 0 0-5.215-.76c-1.812 0-3.562.267-5.215.76l-1.441-3.48-.507-1.223a5.634 5.634 0 0 0 1.435-6.334A5.61 5.61 0 0 0 35.741 14a5.631 5.631 0 0 0-5.195 7.779 5.61 5.61 0 0 0 5.494 3.465l.508 1.226 1.44 3.479a18.38 18.38 0 0 0-7.372 7.373l-3.48-1.441-1.227-.508a5.634 5.634 0 0 0-3.463-5.494 5.595 5.595 0 0 0-2.151-.43 5.61 5.61 0 0 0-5.199 3.474 5.632 5.632 0 0 0 5.196 7.779 5.61 5.61 0 0 0 4.185-1.864l1.22.506 3.48 1.441a18.19 18.19 0 0 0-.76 5.215c0 1.812.267 3.562.76 5.215l-3.48 1.441-1.22.505a5.61 5.61 0 0 0-4.186-1.863 5.632 5.632 0 0 0-5.195 7.779 5.61 5.61 0 0 0 5.199 3.473c.74 0 1.463-.144 2.15-.429a5.634 5.634 0 0 0 3.464-5.494l1.227-.508 3.48-1.44a18.382 18.382 0 0 0 7.373 7.372l-1.441 3.48-.508 1.225a5.61 5.61 0 0 0-5.494 3.465A5.632 5.632 0 0 0 35.74 78a5.61 5.61 0 0 0 5.198-3.474 5.634 5.634 0 0 0-1.435-6.333l.506-1.223 1.442-3.48c1.653.493 3.403.76 5.215.76 1.811 0 3.561-.267 5.215-.76l1.441 3.48.507 1.223a5.634 5.634 0 0 0-1.436 6.334A5.61 5.61 0 0 0 57.592 78a5.631 5.631 0 0 0 5.195-7.779 5.61 5.61 0 0 0-5.494-3.465l-.507-1.226-1.441-3.479a18.381 18.381 0 0 0 7.373-7.373l3.479 1.441 1.227.508a5.634 5.634 0 0 0 3.464 5.494c.687.285 1.41.43 2.15.43a5.61 5.61 0 0 0 5.2-3.474 5.631 5.631 0 0 0-3.045-7.35ZM46.667 60.5c-7.995 0-14.5-6.505-14.5-14.5s6.505-14.5 14.5-14.5 14.5 6.505 14.5 14.5-6.505 14.5-14.5 14.5Z" fill="url(#jb)"/><path d="M46.667 35.25c-5.928 0-10.75 4.822-10.75 10.75s4.822 10.75 10.75 10.75c5.927 0 10.75-4.822 10.75-10.75s-4.823-10.75-10.75-10.75Zm1.875 14.875h-3.75v-8.25h3.75v8.25Z" fill="#000"/><path d="M46.667 35.25c-5.928 0-10.75 4.822-10.75 10.75s4.822 10.75 10.75 10.75c5.927 0 10.75-4.822 10.75-10.75s-4.823-10.75-10.75-10.75Zm1.875 14.875h-3.75v-8.25h3.75v8.25Z" fill="url(#jc)"/></g><defs><linearGradient id="jb" x1="46.667" y1="14" x2="46.667" y2="78" gradientUnits="userSpaceOnUse"><stop stop-color="#EF8080"/><stop offset="1" stop-color="#F0145A"/></linearGradient><linearGradient id="jc" x1="46.667" y1="35.25" x2="46.667" y2="56.75" gradientUnits="userSpaceOnUse"><stop stop-color="#EF8080"/><stop offset="1" stop-color="#F0145A"/></linearGradient><clipPath id="ja"><path fill="#fff" transform="translate(14.667 14)" d="M0 0h64v64H0z"/></clipPath></defs></symbol><symbol fill="none" viewBox="0 0 92 92" id="main_services_icon_4" xmlns="http://www.w3.org/2000/svg"><rect width="92" height="92" rx="24" fill="#fff"/><path d="M56.006 70h-19v6h19v-6Z" fill="#000"/><path d="M56.006 70h-19v6h19v-6Z" fill="url(#ka)"/><path d="M29.173 16.452 15.738 29.887l3.535 3.535 13.435-13.435-3.535-3.535Z" fill="#000"/><path d="M29.173 16.452 15.738 29.887l3.535 3.535 13.435-13.435-3.535-3.535Z" fill="url(#kb)"/><path d="m63.113 16.32-3.536 3.535 13.435 13.436 3.536-3.536L63.113 16.32Z" fill="#000"/><path d="m63.113 16.32-3.536 3.535 13.435 13.436 3.536-3.536L63.113 16.32Z" fill="url(#kc)"/><path d="m58.556 23.708-2.69-.114a5.056 5.056 0 0 0-4.284 1.432l-5.505 5.505-5.753-5.754a3.84 3.84 0 0 0-3.858-.909 3.619 3.619 0 0 1-3.61-.903L32 22.11 21.395 32.718l1.727 1.727-.113 2.692a5.056 5.056 0 0 0 1.431 4.283l9.613 9.612a4.985 4.985 0 0 1 1.69-3.259l-2.995-2.995.707-.707 3.129 3.129a4.95 4.95 0 0 1 1.422-.54v-3.695l-1.722-1.722.707-.707 1.015 1.015V36.2a3.61 3.61 0 0 1 3.142-3.625 3.51 3.51 0 0 1 .991.045l-1.23-1.23.708-.707 1.796 1.796a3.542 3.542 0 0 1 3.404-1.908 3.602 3.602 0 0 1 3.174 3.332 3.558 3.558 0 0 1 1.825-.332 3.62 3.62 0 0 1 3.19 3.663v3.424a5.003 5.003 0 0 1 3.816 3.625l2.788-2.788.708.707-3.316 3.315c0 .014.004.027.004.04v3.32a3.962 3.962 0 0 0 2.379-1.128l6.84-6.84a3.84 3.84 0 0 0 .909-3.858 3.618 3.618 0 0 1 .903-3.611l.854-.854L60.284 21.98l-1.728 1.728Z" fill="#000"/><path d="m58.556 23.708-2.69-.114a5.056 5.056 0 0 0-4.284 1.432l-5.505 5.505-5.753-5.754a3.84 3.84 0 0 0-3.858-.909 3.619 3.619 0 0 1-3.61-.903L32 22.11 21.395 32.718l1.727 1.727-.113 2.692a5.056 5.056 0 0 0 1.431 4.283l9.613 9.612a4.985 4.985 0 0 1 1.69-3.259l-2.995-2.995.707-.707 3.129 3.129a4.95 4.95 0 0 1 1.422-.54v-3.695l-1.722-1.722.707-.707 1.015 1.015V36.2a3.61 3.61 0 0 1 3.142-3.625 3.51 3.51 0 0 1 .991.045l-1.23-1.23.708-.707 1.796 1.796a3.542 3.542 0 0 1 3.404-1.908 3.602 3.602 0 0 1 3.174 3.332 3.558 3.558 0 0 1 1.825-.332 3.62 3.62 0 0 1 3.19 3.663v3.424a5.003 5.003 0 0 1 3.816 3.625l2.788-2.788.708.707-3.316 3.315c0 .014.004.027.004.04v3.32a3.962 3.962 0 0 0 2.379-1.128l6.84-6.84a3.84 3.84 0 0 0 .909-3.858 3.618 3.618 0 0 1 .903-3.611l.854-.854L60.284 21.98l-1.728 1.728Z" fill="url(#kd)"/><path d="M43.88 35.69a2.49 2.49 0 0 0-2.725-2.188 2.598 2.598 0 0 0-2.243 2.63v11.357a4 4 0 0 0-4 4v9.673a3.838 3.838 0 0 0 2.086 3.37 3.618 3.618 0 0 1 1.914 3.193v1.207h15v-2.444l1.984-1.822a5.059 5.059 0 0 0 2.016-4.04V45.488a4 4 0 0 0-4-4v-4.323a2.622 2.622 0 0 0-2.276-2.668 2.492 2.492 0 0 0-2.682 2.1h.458V52.04h-1V36.597h.5v-2.431a2.622 2.622 0 0 0-2.276-2.668 2.502 2.502 0 0 0-2.724 2.49v1.702h.5v15.444h-1V35.69h.468Zm-4.569 20.35h-1v-8h1v8ZM53.413 41.8h1v10.443h-1V41.8Z" fill="#000"/><path d="M43.88 35.69a2.49 2.49 0 0 0-2.725-2.188 2.598 2.598 0 0 0-2.243 2.63v11.357a4 4 0 0 0-4 4v9.673a3.838 3.838 0 0 0 2.086 3.37 3.618 3.618 0 0 1 1.914 3.193v1.207h15v-2.444l1.984-1.822a5.059 5.059 0 0 0 2.016-4.04V45.488a4 4 0 0 0-4-4v-4.323a2.622 2.622 0 0 0-2.276-2.668 2.492 2.492 0 0 0-2.682 2.1h.458V52.04h-1V36.597h.5v-2.431a2.622 2.622 0 0 0-2.276-2.668 2.502 2.502 0 0 0-2.724 2.49v1.702h.5v15.444h-1V35.69h.468Zm-4.569 20.35h-1v-8h1v8ZM53.413 41.8h1v10.443h-1V41.8Z" fill="url(#ke)"/><defs><linearGradient id="ka" x1="46.506" y1="70" x2="46.506" y2="76" gradientUnits="userSpaceOnUse"><stop stop-color="#EF8080"/><stop offset="1" stop-color="#F0145A"/></linearGradient><linearGradient id="kb" x1="22.455" y1="23.169" x2="25.991" y2="26.705" gradientUnits="userSpaceOnUse"><stop stop-color="#EF8080"/><stop offset="1" stop-color="#F0145A"/></linearGradient><linearGradient id="kc" x1="61.345" y1="18.088" x2="74.78" y2="31.523" gradientUnits="userSpaceOnUse"><stop stop-color="#EF8080"/><stop offset="1" stop-color="#F0145A"/></linearGradient><linearGradient id="kd" x1="46.143" y1="21.98" x2="46.143" y2="51.032" gradientUnits="userSpaceOnUse"><stop stop-color="#EF8080"/><stop offset="1" stop-color="#F0145A"/></linearGradient><linearGradient id="ke" x1="46.412" y1="31.488" x2="46.412" y2="68.932" gradientUnits="userSpaceOnUse"><stop stop-color="#EF8080"/><stop offset="1" stop-color="#F0145A"/></linearGradient></defs></symbol><symbol fill="none" viewBox="0 0 93 92" id="main_services_icon_5" xmlns="http://www.w3.org/2000/svg"><rect x=".333" width="92" height="92" rx="24" fill="#fff"/><path d="M55.565 51.696c2.352 0 4.678.588 6.726 1.701.372.2.713.44 1.062.67 3.361-6.58 5.135-13.54 5.135-20.328 0-.382 0-.776-.012-1.17a1.244 1.244 0 0 0-.973-1.156c-7.433-1.625-14.166-5.65-19.458-11.631l-.788-.899a1.207 1.207 0 0 0-.923-.418c-.381-.05-.677.135-.91.394l-1.207 1.33c-5.021 5.525-11.347 9.34-18.289 11.04l-.8.196a1.21 1.21 0 0 0-.935 1.157C23.75 49.886 33.965 62.33 38.37 66.883a41.698 41.698 0 0 0 3.788 3.449 14.227 14.227 0 0 1-.748-4.482c0-7.805 6.35-14.154 14.154-14.154Z" fill="url(#la)"/><path d="M61.116 55.56a11.654 11.654 0 0 0-5.551-1.404c-6.45 0-11.692 5.243-11.692 11.693 0 2.178.59 4.307 1.723 6.129 2.154 3.483 5.87 5.563 9.969 5.563 6.437 0 11.692-5.243 11.692-11.692 0-4.308-2.35-8.247-6.141-10.29Zm.437 8.732-9.145 7.116-3.122-4.883a1.23 1.23 0 1 1 2.074-1.326l1.667 2.608 7.014-5.458a1.23 1.23 0 1 1 1.512 1.943Z" fill="url(#lb)"/><defs><linearGradient id="la" x1="46.333" y1="18.457" x2="46.333" y2="70.332" gradientUnits="userSpaceOnUse"><stop stop-color="#EF8080"/><stop offset="1" stop-color="#F0145A"/></linearGradient><linearGradient id="lb" x1="55.565" y1="54.156" x2="55.565" y2="77.541" gradientUnits="userSpaceOnUse"><stop stop-color="#EF8080"/><stop offset="1" stop-color="#F0145A"/></linearGradient></defs></symbol><symbol fill="none" viewBox="0 0 93 92" id="main_services_icon_6" xmlns="http://www.w3.org/2000/svg"><rect x=".667" width="92" height="92" rx="24" fill="#fff"/><path d="M55.019 34.389a1.872 1.872 0 0 0 2.65 0l2.608-2.608a1.878 1.878 0 0 0 0-2.651l-6.583-6.581a1.871 1.871 0 0 0-2.648 0l-2.61 2.608a1.875 1.875 0 0 0 0 2.648l6.583 6.584Z" fill="url(#ma)"/><path d="M39.433 50.265a1.876 1.876 0 0 0 2.648 0l2.609-2.61a1.872 1.872 0 0 0 0-2.649l-6.583-6.583a1.874 1.874 0 0 0-2.65 0l-2.607 2.608a1.875 1.875 0 0 0 0 2.65l6.583 6.584Z" fill="url(#mb)"/><path d="m69.315 50.891-2.647-2.65a1.875 1.875 0 0 0-2.648 0l-1.161 1.16-11.205-11.207 2.427-2.428-6.733-6.73-2.428 2.427-3.092 3.09-2.374 2.374 6.732 6.733 2.377-2.373 11.203 11.205-1.048 1.05a1.87 1.87 0 0 0 0 2.647l2.647 2.648a1.87 1.87 0 0 0 2.65 0l5.299-5.297a1.871 1.871 0 0 0 0-2.649Z" fill="url(#mc)"/><path d="M49.744 58.943a2.173 2.173 0 0 0-2.173-2.173H30.603c-1.2 0-2.173.973-2.173 2.172v3.527h-4.763v7.39h30.558v-7.39h-4.481v-3.526Z" fill="url(#md)"/><defs><linearGradient id="ma" x1="54.357" y1="22" x2="54.357" y2="34.939" gradientUnits="userSpaceOnUse"><stop stop-color="#EF8080"/><stop offset="1" stop-color="#F0145A"/></linearGradient><linearGradient id="mb" x1="38.77" y1="37.875" x2="38.77" y2="50.812" gradientUnits="userSpaceOnUse"><stop stop-color="#EF8080"/><stop offset="1" stop-color="#F0145A"/></linearGradient><linearGradient id="mc" x1="54.659" y1="29.035" x2="54.659" y2="59.388" gradientUnits="userSpaceOnUse"><stop stop-color="#EF8080"/><stop offset="1" stop-color="#F0145A"/></linearGradient><linearGradient id="md" x1="38.946" y1="56.77" x2="38.946" y2="69.859" gradientUnits="userSpaceOnUse"><stop stop-color="#EF8080"/><stop offset="1" stop-color="#F0145A"/></linearGradient></defs></symbol><symbol fill="none" viewBox="0 0 4 303" id="main_vertical_line" xmlns="http://www.w3.org/2000/svg"><path fill="#fff" fill-opacity=".3" d="M0 0h4v303H0z"/></symbol><symbol fill="none" viewBox="0 0 8 11" id="services_arrow" xmlns="http://www.w3.org/2000/svg"><path d="M1.5 1 6 5.5 1.5 10" stroke="#24A3FF" stroke-width="2"/></symbol></svg>